<svg width="30" height="30" viewBox="0 0 30 30" fill="none" xmlns="http://www.w3.org/2000/svg">
<path fill-rule="evenodd" clip-rule="evenodd" d="M6.9516 5.95862C6.35574 5.95862 5.9585 5.56138 5.9585 4.96552V0.993104C5.9585 0.397241 6.35574 0 6.9516 0C7.54746 0 7.9447 0.397241 7.9447 0.993104V4.96552C7.9447 5.56138 7.54746 5.95862 6.9516 5.95862ZM26.8138 29.7932H2.97931C1.29103 29.7932 0 28.5022 0 26.8139V4.96564C0 3.27736 1.09241 1.98633 2.48276 1.98633H3.97241V3.97253H2.48276C2.28414 3.97253 1.98621 4.36978 1.98621 4.96564V26.8139C1.98621 27.4098 2.38345 27.807 2.97931 27.807H26.8138C27.4097 27.807 27.8069 27.4098 27.8069 26.8139V9.93054H1.98633V7.94434H27.8069V4.96564C27.8069 4.36978 27.509 3.97253 27.3103 3.97253H25.8207V1.98633H27.3103C28.7007 1.98633 29.7931 3.27736 29.7931 4.96564V26.8139C29.7931 28.5022 28.5021 29.7932 26.8138 29.7932ZM21.8481 4.96552C21.8481 5.56138 22.2454 5.95862 22.8412 5.95862C23.4371 5.95862 23.8344 5.56138 23.8344 4.96552V0.993104C23.8344 0.397241 23.4371 0 22.8412 0C22.2454 0 21.8481 0.397241 21.8481 0.993104V4.96552ZM9.93115 1.98633H19.8622V3.97253H9.93115V1.98633ZM23.8345 11.9175H25.8207V13.9037H23.8345V11.9175ZM21.8485 11.9175H19.8623V13.9037H21.8485V11.9175ZM15.8896 11.9175H17.8759V13.9037H15.8896V11.9175ZM13.9032 11.9175H11.917V13.9037H13.9032V11.9175ZM7.94482 11.9175H9.93103V13.9037H7.94482V11.9175ZM25.8207 15.8896H23.8345V17.8759H25.8207V15.8896ZM19.8623 15.8896H21.8485V17.8759H19.8623V15.8896ZM17.8759 15.8896H15.8896V17.8759H17.8759V15.8896ZM11.917 15.8896H13.9032V17.8759H11.917V15.8896ZM9.93103 15.8896H7.94482V17.8759H9.93103V15.8896ZM3.97266 15.8896H5.95886V17.8759H3.97266V15.8896ZM25.8207 19.8618H23.8345V21.848H25.8207V19.8618ZM19.8623 19.8618H21.8485V21.848H19.8623V19.8618ZM17.8758 19.8618H15.8896V21.848H17.8758V19.8618ZM11.917 19.8618H13.9032V21.848H11.917V19.8618ZM9.93103 19.8618H7.94482V21.848H9.93103V19.8618ZM3.97217 19.8618H5.95837V21.848H3.97217V19.8618ZM21.8485 23.8345H19.8623V25.8207H21.8485V23.8345ZM15.8896 23.8345H17.8758V25.8207H15.8896V23.8345ZM13.9032 23.8345H11.917V25.8207H13.9032V23.8345ZM7.94482 23.8345H9.93103V25.8207H7.94482V23.8345ZM5.95837 23.8345H3.97217V25.8207H5.95837V23.8345Z" fill="#888888"/>
</svg>
