<svg width="30" height="30" viewBox="0 0 30 30" fill="none" xmlns="http://www.w3.org/2000/svg">
<path fill-rule="evenodd" clip-rule="evenodd" d="M15 28.125C18.481 28.125 21.8194 26.7422 24.2808 24.2808C26.7422 21.8194 28.125 18.481 28.125 15C28.125 11.519 26.7422 8.18064 24.2808 5.71922C21.8194 3.25781 18.481 1.875 15 1.875C11.519 1.875 8.18064 3.25781 5.71922 5.71922C3.25781 8.18064 1.875 11.519 1.875 15C1.875 18.481 3.25781 21.8194 5.71922 24.2808C8.18064 26.7422 11.519 28.125 15 28.125ZM30 15C30 18.9782 28.4196 22.7936 25.6066 25.6066C22.7936 28.4196 18.9782 30 15 30C11.0218 30 7.20644 28.4196 4.3934 25.6066C1.58035 22.7936 0 18.9782 0 15C0 11.0218 1.58035 7.20644 4.3934 4.3934C7.20644 1.58035 11.0218 0 15 0C18.9782 0 22.7936 1.58035 25.6066 4.3934C28.4196 7.20644 30 11.0218 30 15Z" fill="#888888"/>
<path fill-rule="evenodd" clip-rule="evenodd" d="M14.0625 5.625C14.3111 5.625 14.5496 5.72377 14.7254 5.89959C14.9012 6.0754 15 6.31386 15 6.5625V16.3312L21.09 19.8112C21.2996 19.9377 21.4514 20.1411 21.5131 20.378C21.5747 20.615 21.5412 20.8666 21.4197 21.0791C21.2983 21.2917 21.0985 21.4483 20.8631 21.5155C20.6277 21.5827 20.3754 21.5551 20.16 21.4387L13.5975 17.6887C13.454 17.6068 13.3347 17.4884 13.2518 17.3454C13.1688 17.2025 13.1251 17.0402 13.125 16.875V6.5625C13.125 6.31386 13.2238 6.0754 13.3996 5.89959C13.5754 5.72377 13.8139 5.625 14.0625 5.625Z" fill="#888888"/>
</svg>
