<svg width="30" height="30" viewBox="0 0 30 30" fill="none" xmlns="http://www.w3.org/2000/svg">
<path d="M28.1078 30H24.3615C23.8541 30 23.4151 29.8145 23.0444 29.4434C22.6737 29.0723 22.4883 28.6328 22.4883 28.125V24.375C22.4883 23.8672 22.6737 23.4277 23.0444 23.0566C23.4151 22.6855 23.8541 22.5 24.3615 22.5H28.1078C28.6151 22.5 29.0541 22.6855 29.4249 23.0566C29.7956 23.4277 29.981 23.8672 29.981 24.375V28.125C29.981 28.6523 29.8005 29.0967 29.4395 29.458C29.0785 29.8193 28.6346 30 28.1078 30ZM28.1078 18.75H24.3615C23.8541 18.75 23.4151 18.5693 23.0444 18.208C22.6737 17.8467 22.4883 17.4023 22.4883 16.875V13.125C22.4883 12.5977 22.6737 12.1533 23.0444 11.792C23.4151 11.4307 23.8541 11.25 24.3615 11.25H28.1078C28.6151 11.25 29.0541 11.4307 29.4249 11.792C29.7956 12.1533 29.981 12.5977 29.981 13.125V16.875C29.981 17.4023 29.8005 17.8467 29.4395 18.208C29.0785 18.5693 28.6346 18.75 28.1078 18.75ZM28.1078 7.5H24.3615C23.8541 7.5 23.4151 7.31445 23.0444 6.94336C22.6737 6.57227 22.4883 6.13281 22.4883 5.625V1.875C22.4883 1.34766 22.6737 0.90332 23.0444 0.541992C23.4151 0.180664 23.8541 0 24.3615 0H28.1078C28.6151 0 29.0541 0.180664 29.4249 0.541992C29.7956 0.90332 29.981 1.34766 29.981 1.875V5.625C29.981 6.13281 29.8005 6.57227 29.4395 6.94336C29.0785 7.31445 28.6346 7.5 28.1078 7.5ZM16.8688 30H13.1224C12.5956 30 12.1517 29.8145 11.7907 29.4434C11.4298 29.0723 11.2493 28.6328 11.2493 28.125V24.375C11.2493 23.8672 11.4346 23.4277 11.8054 23.0566C12.1761 22.6855 12.6151 22.5 13.1224 22.5H16.8688C17.3956 22.5 17.8395 22.6855 18.2005 23.0566C18.5615 23.4277 18.742 23.8672 18.742 24.375V28.125C18.742 28.6523 18.5615 29.0967 18.2005 29.458C17.8395 29.8193 17.3956 30 16.8688 30ZM16.8688 18.75H13.1224C12.5956 18.75 12.1517 18.5693 11.7907 18.208C11.4298 17.8467 11.2493 17.4023 11.2493 16.875V13.125C11.2493 12.5977 11.4346 12.1533 11.8054 11.792C12.1761 11.4307 12.6151 11.25 13.1224 11.25H16.8688C17.3956 11.25 17.8395 11.4307 18.2005 11.792C18.5615 12.1533 18.742 12.5977 18.742 13.125V16.875C18.742 17.4023 18.5615 17.8467 18.2005 18.208C17.8395 18.5693 17.3956 18.75 16.8688 18.75ZM16.8688 7.5H13.1224C12.5956 7.5 12.1517 7.31445 11.7907 6.94336C11.4298 6.57227 11.2493 6.13281 11.2493 5.625V1.875C11.2493 1.34766 11.4346 0.90332 11.8054 0.541992C12.1761 0.180664 12.6151 0 13.1224 0H16.8688C17.3956 0 17.8395 0.180664 18.2005 0.541992C18.5615 0.90332 18.742 1.34766 18.742 1.875V5.625C18.742 6.13281 18.5615 6.57227 18.2005 6.94336C17.8395 7.31445 17.3956 7.5 16.8688 7.5ZM5.62976 30H1.88342C1.37611 30 0.937083 29.8145 0.566351 29.4434C0.19562 29.0723 0.0102539 28.6328 0.0102539 28.125V24.375C0.0102539 23.8672 0.19562 23.4277 0.566351 23.0566C0.937083 22.6855 1.37611 22.5 1.88342 22.5H5.62976C6.13708 22.5 6.57611 22.6855 6.94684 23.0566C7.31757 23.4277 7.50293 23.8672 7.50293 24.375V28.125C7.50293 28.6523 7.32245 29.0967 6.96147 29.458C6.6005 29.8193 6.15659 30 5.62976 30ZM5.62976 18.75H1.88342C1.37611 18.75 0.937083 18.5693 0.566351 18.208C0.19562 17.8467 0.0102539 17.4023 0.0102539 16.875V13.125C0.0102539 12.5977 0.19562 12.1533 0.566351 11.792C0.937083 11.4307 1.37611 11.25 1.88342 11.25H5.62976C6.13708 11.25 6.57611 11.4307 6.94684 11.792C7.31757 12.1533 7.50293 12.5977 7.50293 13.125V16.875C7.50293 17.4023 7.32245 17.8467 6.96147 18.208C6.6005 18.5693 6.15659 18.75 5.62976 18.75ZM5.62976 7.5H1.88342C1.37611 7.5 0.937083 7.31445 0.566351 6.94336C0.19562 6.57227 0.0102539 6.13281 0.0102539 5.625V1.875C0.0102539 1.34766 0.19562 0.90332 0.566351 0.541992C0.937083 0.180664 1.37611 0 1.88342 0H5.62976C6.13708 0 6.57611 0.180664 6.94684 0.541992C7.31757 0.90332 7.50293 1.34766 7.50293 1.875V5.625C7.50293 6.13281 7.32245 6.57227 6.96147 6.94336C6.6005 7.31445 6.15659 7.5 5.62976 7.5Z" fill="#888888"/>
</svg>
