<svg width="27" height="28" viewBox="0 0 27 28" fill="none" xmlns="http://www.w3.org/2000/svg">
<path d="M3.03543 2.44329H10.1322V0.681285H3.03543V2.44329ZM11.0254 3.3391V10.4464H12.7874V3.3391H11.0254ZM10.1322 11.3422H3.03543V13.1042H10.1322V11.3422ZM2.14223 10.4464V3.3391H0.380227V10.4464H2.14223ZM3.03543 11.3422C2.54335 11.3422 2.14223 10.9423 2.14223 10.4464H0.380227C0.380227 11.913 1.56778 13.1042 3.03543 13.1042V11.3422ZM11.0254 10.4464C11.0254 10.9423 10.6243 11.3422 10.1322 11.3422V13.1042C11.5999 13.1042 12.7874 11.913 12.7874 10.4464H11.0254ZM10.1322 2.44329C10.6243 2.44329 11.0254 2.84314 11.0254 3.3391H12.7874C12.7874 1.87245 11.5999 0.681285 10.1322 0.681285V2.44329ZM3.03543 0.681285C1.56778 0.681285 0.380227 1.87245 0.380227 3.3391H2.14223C2.14223 2.84314 2.54335 2.44329 3.03543 2.44329V0.681285ZM17.229 2.44329H24.3258V0.681285H17.229V2.44329ZM25.219 3.3391V10.4464H26.9811V3.3391H25.219ZM24.3258 11.3422H17.229V13.1042H24.3258V11.3422ZM16.3358 10.4464V3.3391H14.5738V10.4464H16.3358ZM17.229 11.3422C16.737 11.3422 16.3358 10.9423 16.3358 10.4464H14.5738C14.5738 11.913 15.7614 13.1042 17.229 13.1042V11.3422ZM25.219 10.4464C25.219 10.9423 24.8179 11.3422 24.3258 11.3422V13.1042C25.7935 13.1042 26.9811 11.913 26.9811 10.4464H25.219ZM24.3258 2.44329C24.8179 2.44329 25.219 2.84314 25.219 3.3391H26.9811C26.9811 1.87245 25.7935 0.681285 24.3258 0.681285V2.44329ZM17.229 0.681285C15.7614 0.681285 14.5738 1.87245 14.5738 3.3391H16.3358C16.3358 2.84314 16.737 2.44329 17.229 2.44329V0.681285ZM17.229 16.6578H24.3258V14.8958H17.229V16.6578ZM25.219 17.5536V24.6609H26.9811V17.5536H25.219ZM24.3258 25.5567H17.229V27.3187H24.3258V25.5567ZM16.3358 24.6609V17.5536H14.5738V24.6609H16.3358ZM17.229 25.5567C16.737 25.5567 16.3358 25.1568 16.3358 24.6609H14.5738C14.5738 26.1275 15.7614 27.3187 17.229 27.3187V25.5567ZM25.219 24.6609C25.219 25.1568 24.8179 25.5567 24.3258 25.5567V27.3187C25.7935 27.3187 26.9811 26.1275 26.9811 24.6609H25.219ZM24.3258 16.6578C24.8179 16.6578 25.219 17.0576 25.219 17.5536H26.9811C26.9811 16.087 25.7935 14.8958 24.3258 14.8958V16.6578ZM17.229 14.8958C15.7614 14.8958 14.5738 16.087 14.5738 17.5536H16.3358C16.3358 17.0576 16.737 16.6578 17.229 16.6578V14.8958ZM3.03543 16.6578H10.1322V14.8958H3.03543V16.6578ZM11.0254 17.5536V24.6609H12.7874V17.5536H11.0254ZM10.1322 25.5567H3.03543V27.3187H10.1322V25.5567ZM2.14223 24.6609V17.5536H0.380227V24.6609H2.14223ZM3.03543 25.5567C2.54335 25.5567 2.14223 25.1568 2.14223 24.6609H0.380227C0.380227 26.1275 1.56778 27.3187 3.03543 27.3187V25.5567ZM11.0254 24.6609C11.0254 25.1568 10.6243 25.5567 10.1322 25.5567V27.3187C11.5999 27.3187 12.7874 26.1275 12.7874 24.6609H11.0254ZM10.1322 16.6578C10.6243 16.6578 11.0254 17.0576 11.0254 17.5536H12.7874C12.7874 16.087 11.5999 14.8958 10.1322 14.8958V16.6578ZM3.03543 14.8958C1.56778 14.8958 0.380227 16.087 0.380227 17.5536H2.14223C2.14223 17.0576 2.54335 16.6578 3.03543 16.6578V14.8958Z" fill="white"/>
</svg>
