<svg width="23" height="22" viewBox="0 0 23 22" fill="none" xmlns="http://www.w3.org/2000/svg">
<path d="M22.8798 20.8494L16.7435 14.704C18.218 12.9312 18.9534 10.6572 18.7965 8.35518C18.6396 6.05317 17.6025 3.90036 15.901 2.3446C14.1996 0.788838 11.9647 -0.0500981 9.66131 0.00231604C7.35794 0.0547302 5.16341 0.994459 3.53426 2.62601C1.90511 4.25756 0.966759 6.45532 0.914422 8.76209C0.862085 11.0689 1.69979 13.307 3.25326 15.011C4.80674 16.715 6.95638 17.7536 9.255 17.9107C11.5536 18.0678 13.8242 17.3314 15.5945 15.8547L21.7308 22L22.8798 20.8494ZM2.56625 8.98021C2.56625 7.53173 2.99514 6.11578 3.79869 4.91141C4.60223 3.70705 5.74435 2.76836 7.0806 2.21405C8.41685 1.65974 9.88722 1.51471 11.3058 1.7973C12.7243 2.07988 14.0274 2.77739 15.0501 3.80162C16.0728 4.82584 16.7693 6.13079 17.0515 7.55144C17.3336 8.97208 17.1888 10.4446 16.6353 11.7828C16.0818 13.1211 15.1445 14.2649 13.9419 15.0696C12.7393 15.8743 11.3255 16.3038 9.87911 16.3038C7.94028 16.3017 6.08147 15.5294 4.71051 14.1564C3.33955 12.7834 2.5684 10.9219 2.56625 8.98021V8.98021Z" fill="white"/>
</svg>
