<svg width="18" height="24" viewBox="0 0 18 24" fill="none" xmlns="http://www.w3.org/2000/svg">
<path d="M4.99482 4.59262C4.99482 2.54712 6.68822 0.888916 8.77713 0.888916C10.866 0.888916 12.5594 2.54712 12.5594 4.59262V10.5185C12.5594 12.564 10.866 14.2222 8.77713 14.2222C6.68822 14.2222 4.99482 12.564 4.99482 10.5185V4.59262Z" fill="white"/>
<path d="M0.456055 6.81484V10.5185C0.456055 14.7689 3.77957 18.2592 8.02067 18.6335V21.6297H4.99482V23.1111H12.5594V21.6297H9.53359V18.6335C13.7747 18.2592 17.0982 14.7689 17.0982 10.5185V6.81484H15.5853V10.5185C15.5853 14.2004 12.5372 17.1852 8.77713 17.1852C5.01709 17.1852 1.96898 14.2004 1.96898 10.5185V6.81484H0.456055Z" fill="white"/>
</svg>
