<svg width="48" height="48" viewBox="0 0 48 48" fill="none" xmlns="http://www.w3.org/2000/svg">
<path d="M27.1722 11C28.92 11 29.7939 12.1856 29.7939 13.5441C29.7939 15.2406 28.2757 16.8097 26.2996 16.8097C24.6443 16.8097 23.6791 15.8347 23.7248 14.2227C23.7248 12.8668 24.8739 11 27.1722 11ZM21.7943 37C20.4143 37 19.4035 36.1524 20.3687 32.4188L21.9522 25.7992C22.2274 24.741 22.273 24.3159 21.9522 24.3159C21.5387 24.3159 19.7491 25.0465 18.6887 25.768L18 24.624C21.3548 21.7822 25.2143 20.1169 26.8709 20.1169C28.2496 20.1169 28.4791 21.7718 27.7904 24.3159L25.9761 31.2735C25.6552 32.502 25.7922 32.9258 26.1143 32.9258C26.5278 32.9258 27.8843 32.4162 29.2174 31.3567L30 32.4149C26.7365 35.726 23.1717 37 21.7943 37Z" fill="#CCCCCC"/>
<path d="M27.1722 11C28.92 11 29.7939 12.1856 29.7939 13.5441C29.7939 15.2406 28.2757 16.8097 26.2996 16.8097C24.6443 16.8097 23.6791 15.8347 23.7248 14.2227C23.7248 12.8668 24.8739 11 27.1722 11ZM21.7943 37C20.4143 37 19.4035 36.1524 20.3687 32.4188L21.9522 25.7992C22.2274 24.741 22.273 24.3159 21.9522 24.3159C21.5387 24.3159 19.7491 25.0465 18.6887 25.768L18 24.624C21.3548 21.7822 25.2143 20.1169 26.8709 20.1169C28.2496 20.1169 28.4791 21.7718 27.7904 24.3159L25.9761 31.2735C25.6552 32.502 25.7922 32.9258 26.1143 32.9258C26.5278 32.9258 27.8843 32.4162 29.2174 31.3567L30 32.4149C26.7365 35.726 23.1717 37 21.7943 37Z" fill="white"/>
</svg>
