<svg width="30" height="30" viewBox="0 0 30 30" fill="none" xmlns="http://www.w3.org/2000/svg">
<g clip-path="url(#clip0_170_188)">
<path d="M0 24.5975H5.40247V30H0V24.5975ZM0 24.5975H5.40247V30H0V24.5975ZM0 16.3984H5.40247V21.8009H0V16.3984ZM0 8.19918H5.40247V13.6016H0V8.19918ZM0 0H5.40247V5.40245H0V0ZM7.9399 24.5975H30V30H7.9399V24.5975ZM7.9399 24.5975H30V30H7.9399V24.5975ZM7.9399 16.3984H30V21.8009H7.9399V16.3984ZM7.9399 8.19918H30V13.6016H7.9399V8.19918ZM7.9399 0H30V5.40245H7.9399V0V0Z" fill="#888888"/>
</g>
<defs>
<clipPath id="clip0_170_188">
<rect width="30" height="30" fill="white"/>
</clipPath>
</defs>
</svg>
