<svg width="24" height="30" viewBox="0 0 24 30" fill="none" xmlns="http://www.w3.org/2000/svg">
<g clip-path="url(#clip0_175_724)">
<path fill-rule="evenodd" clip-rule="evenodd" d="M2.74716 19.3404L11.7857 30L20.8275 19.3361C20.8757 19.2793 21.1972 18.8571 21.1972 18.8571L21.1982 18.8539C22.7415 16.8211 23.5752 14.338 23.5714 11.7857C23.5714 8.65995 22.3297 5.66221 20.1195 3.45196C17.9092 1.24171 14.9115 0 11.7857 0C8.65996 0 5.66222 1.24171 3.45197 3.45196C1.24172 5.66221 1.25388e-05 8.65995 1.25388e-05 11.7857C-0.00372985 14.3392 0.830349 16.8233 2.3743 18.8571C2.49727 19.0192 2.62156 19.1803 2.74716 19.3404ZM4.20058 17.7176C4.13816 17.6356 4.08528 17.5661 4.0843 17.5661H4.08537C2.82299 15.9037 2.14062 13.8731 2.14287 11.7857C2.14287 9.22827 3.15881 6.77557 4.9672 4.96718C6.77558 3.1588 9.22828 2.14286 11.7857 2.14286C14.3432 2.14286 16.7959 3.1588 18.6043 4.96718C20.4126 6.77557 21.4286 9.22827 21.4286 11.7857C21.4311 13.8718 20.7495 15.9012 19.4882 17.5629C19.488 17.5631 19.473 17.5828 19.4499 17.6134C19.3775 17.709 19.225 17.9104 19.1893 17.955L11.7857 26.6871L4.3918 17.9668C4.36107 17.9285 4.27419 17.8143 4.20058 17.7176ZM8.80959 16.24C9.69057 16.8287 10.7263 17.1429 11.7859 17.1429C13.2061 17.1412 14.5678 16.5762 15.5721 15.5719C16.5763 14.5676 17.1413 13.206 17.143 11.7857C17.143 10.7262 16.8288 9.69044 16.2402 8.80947C15.6515 7.92849 14.8148 7.24185 13.8359 6.83638C12.8571 6.43091 11.7799 6.32482 10.7407 6.53153C9.70155 6.73823 8.74699 7.24845 7.99778 7.99766C7.24857 8.74687 6.73836 9.70142 6.53165 10.7406C6.32494 11.7798 6.43103 12.8569 6.8365 13.8358C7.24197 14.8147 7.92861 15.6514 8.80959 16.24ZM10.0001 9.11315C10.5287 8.75996 11.1501 8.57145 11.7859 8.57145C12.6381 8.5723 13.4551 8.91122 14.0578 9.51383C14.6604 10.1164 14.9993 10.9335 15.0001 11.7857C15.0001 12.4215 14.8116 13.0429 14.4584 13.5715C14.1052 14.1001 13.6032 14.5121 13.0159 14.7553C12.4286 14.9986 11.7823 15.0623 11.1588 14.9383C10.5353 14.8142 9.96254 14.5081 9.51301 14.0586C9.06349 13.6091 8.75736 13.0363 8.63333 12.4128C8.50931 11.7893 8.57296 11.143 8.81624 10.5557C9.05953 9.96835 9.47151 9.46634 10.0001 9.11315Z" fill="#888888"/>
</g>
<defs>
<clipPath id="clip0_175_724">
<rect width="23.5714" height="30" fill="white"/>
</clipPath>
</defs>
</svg>
