<svg width="48" height="48" viewBox="0 0 48 48" fill="none" xmlns="http://www.w3.org/2000/svg">
<path d="M12 17.3932V30.6068C12 31.8233 12.5022 32.9048 13.3057 33.7496C14.1091 34.5607 15.147 35 16.3522 35H22.914V32.2627H16.3522C15.4483 32.2627 14.7452 31.5192 14.7452 30.6068V17.3932C14.7452 16.4808 15.4483 15.7711 16.3522 15.7711H22.914V13H16.3522C15.147 13 14.1091 13.4731 13.3057 14.2842C12.5022 15.129 12 16.1767 12 17.3932ZM19.1979 21.381V26.6528C19.1979 27.2611 19.7335 27.7681 20.3361 27.7681H26.3957V31.9247C26.3957 32.2965 26.5966 32.6006 26.9314 32.7696C27.0653 32.8034 27.1992 32.8034 27.2662 32.8034C27.5005 32.8034 27.7014 32.7358 27.8688 32.5668L35.7362 24.6252C36.1045 24.321 36.071 23.7128 35.7362 23.3748L27.8688 15.467C27.4001 14.9601 26.3957 15.2642 26.3957 16.0753V20.2657H20.3361C19.7335 20.2657 19.1979 20.7727 19.1979 21.381Z" fill="white"/>
</svg>
