<svg width="22" height="22" viewBox="0 0 22 22" fill="none" xmlns="http://www.w3.org/2000/svg">
<path d="M10.2525 5.52149L9.78811 5.97996L10.2525 5.52149ZM4.36243 11.4881L3.89801 11.9466H3.89801L4.36243 11.4881ZM10.9888 18.2005L10.5244 18.659C10.647 18.7832 10.8143 18.8531 10.9888 18.8531C11.1633 18.8531 11.3306 18.7832 11.4532 18.659L10.9888 18.2005ZM13.9095 15.2419L13.4488 14.7796L13.4451 14.7834L13.9095 15.2419ZM13.934 15.2172L13.4696 14.7588L13.4696 14.7588L13.934 15.2172ZM17.6153 11.4881L18.0798 11.9466L17.6153 11.4881ZM17.6153 5.52152L17.1509 5.97999V5.97999L17.6153 5.52152ZM11.7252 5.52152L11.2608 5.06306L11.7252 5.52152ZM10.9889 6.26742L10.5245 6.72589C10.6471 6.8501 10.8144 6.92001 10.9889 6.92001C11.1634 6.92001 11.3307 6.8501 11.4533 6.72589L10.9889 6.26742ZM4.82685 5.97996C6.19784 4.59117 8.41712 4.59117 9.78811 5.97996L10.717 5.06302C8.83493 3.15655 5.78003 3.15655 3.898 5.06302L4.82685 5.97996ZM4.82685 11.0296C3.45124 9.63615 3.45124 7.37344 4.82685 5.97996L3.898 5.06302C2.0206 6.96481 2.0206 10.0448 3.89801 11.9466L4.82685 11.0296ZM11.4532 17.7421L4.82685 11.0296L3.89801 11.9466L10.5244 18.659L11.4532 17.7421ZM13.4451 14.7834L10.5244 17.7421L11.4532 18.659L14.3739 15.7003L13.4451 14.7834ZM13.4696 14.7588C13.4627 14.7658 13.4558 14.7727 13.4488 14.7796L14.3702 15.7041C14.3797 15.6947 14.3891 15.6852 14.3985 15.6757L13.4696 14.7588ZM17.1509 11.0297L13.4696 14.7588L14.3984 15.6757L18.0798 11.9466L17.1509 11.0297ZM17.1509 5.97999C18.5265 7.37347 18.5265 9.63618 17.1509 11.0297L18.0798 11.9466C19.9572 10.0448 19.9572 6.96484 18.0798 5.06305L17.1509 5.97999ZM12.1897 5.97999C13.5606 4.5912 15.7799 4.5912 17.1509 5.97999L18.0798 5.06305C16.1977 3.15658 13.1428 3.15659 11.2608 5.06306L12.1897 5.97999ZM11.4533 6.72589L12.1897 5.97999L11.2608 5.06306L10.5245 5.80895L11.4533 6.72589ZM9.78811 5.97996L10.5245 6.72589L11.4533 5.80895L10.717 5.06302L9.78811 5.97996Z" fill="#E11A3D"/>
</svg>
