<svg width="26" height="28" viewBox="0 0 26 28" fill="none" xmlns="http://www.w3.org/2000/svg">
<path d="M11.0978 27.4377C11.9212 27.4377 12.7109 27.1101 13.2932 26.527C13.8754 25.9439 14.2025 25.1531 14.2025 24.3284H7.99315C7.99315 25.1531 8.32025 25.9439 8.90249 26.527C9.48473 27.1101 10.2744 27.4377 11.0978 27.4377ZM11.0978 5.54542L9.86062 5.79572C8.45724 6.08208 7.19576 6.84525 6.28969 7.95606C5.38362 9.06687 4.88862 10.4571 4.88847 11.8914C4.88847 12.8677 4.68045 15.3069 4.17594 17.7088C3.92757 18.9012 3.59226 20.1434 3.14674 21.2192H19.0489C18.6034 20.1434 18.2696 18.9028 18.0197 17.7088C17.5152 15.3069 17.3072 12.8677 17.3072 11.8914C17.3067 10.4574 16.8115 9.06751 15.9055 7.95702C14.9994 6.84653 13.7382 6.08358 12.335 5.79727L11.0978 5.54387V5.54542ZM20.7534 21.2192C21.0996 21.9141 21.5001 22.4644 21.9642 22.7738H0.231445C0.695595 22.4644 1.0961 21.9141 1.44227 21.2192C2.83938 18.4208 3.33613 13.2595 3.33613 11.8914C3.33613 8.12921 6.00615 4.98887 9.55325 4.27218C9.53159 4.05602 9.5554 3.83771 9.62316 3.63132C9.69092 3.42494 9.80112 3.23508 9.94665 3.07397C10.0922 2.91286 10.2698 2.78409 10.4681 2.69595C10.6664 2.60782 10.8809 2.56229 11.0978 2.56229C11.3148 2.56229 11.5293 2.60782 11.7276 2.69595C11.9258 2.78409 12.1035 2.91286 12.249 3.07397C12.3945 3.23508 12.5047 3.42494 12.5725 3.63132C12.6403 3.83771 12.6641 4.05602 12.6424 4.27218C14.397 4.62959 15.9743 5.58329 17.1073 6.9718C18.2403 8.3603 18.8593 10.0983 18.8595 11.8914C18.8595 13.2595 19.3563 18.4208 20.7534 21.2192Z" fill="white"/>
<path d="M18.8605 11.8906C21.7207 11.8906 24.0368 9.5689 24.0368 6.70819C24.0368 3.84748 21.7207 1.52581 18.8605 1.52581C16.0003 1.52581 13.6842 3.84748 13.6842 6.70819C13.6842 9.5689 16.0003 11.8906 18.8605 11.8906Z" fill="#E60000" stroke="black" stroke-width="2.07295"/>
</svg>
