<svg width="48" height="48" viewBox="0 0 48 48" fill="none" xmlns="http://www.w3.org/2000/svg">
<path d="M21.6422 24C21.6422 22.6763 22.6975 21.6007 23.9983 21.6007C25.2992 21.6007 26.3544 22.6763 26.3544 24C26.3544 25.3238 25.2991 26.3995 23.9983 26.3995C22.6975 26.3995 21.6422 25.3238 21.6422 24Z" fill="white"/>
<path fill-rule="evenodd" clip-rule="evenodd" d="M20.9094 12H27.0861L27.3477 13.3387L27.3487 13.3433L27.779 15.4799C28.3926 15.7558 28.9618 16.0973 29.4881 16.4839L31.6392 15.7508L32.9142 15.3481L33.5801 16.5117L35.3195 19.4784L36 20.6679L34.9866 21.5683L33.3732 22.9672C33.4238 23.2812 33.4708 23.6357 33.4708 24C33.4708 24.3643 33.4238 24.7188 33.3732 25.0328L34.9938 26.438L36 27.3322L35.3152 28.5288L33.5802 31.488L32.9142 32.6548L31.6227 32.2438L29.4881 31.5161C28.9617 31.9027 28.3926 32.2442 27.779 32.52L27.3487 34.6566L27.3477 34.6612L27.0862 36H20.9094L20.6502 34.6583L20.2183 32.5201C19.6045 32.2443 19.0353 31.9028 18.5089 31.5161L16.3593 32.2487L15.0816 32.6552L14.418 31.4874L12.6768 28.5202L12 27.3322L13.0104 26.4317L14.6244 25.0323C14.5739 24.7191 14.5262 24.3633 14.5262 24C14.5262 23.6366 14.5739 23.2808 14.6244 22.9677L13.0023 21.5612L12 20.6678L12.6819 19.4708L14.4182 16.5123L15.0816 15.3478L16.3743 15.7562L18.5089 16.4839C19.0353 16.0972 19.6045 15.7557 20.2183 15.4798L20.6502 13.3416L20.9094 12ZM23.9983 19.9998C21.831 19.9998 20.0715 21.7911 20.0715 24C20.0715 26.2089 21.831 28.0004 23.9983 28.0004C26.1657 28.0004 27.9252 26.2089 27.9252 24C27.9252 21.7911 26.1657 19.9998 23.9983 19.9998Z" fill="white"/>
</svg>
