<svg width="25" height="25" viewBox="0 0 25 25" fill="none" xmlns="http://www.w3.org/2000/svg">
<path d="M25 9C25 9.27083 24.9116 9.50521 24.7349 9.70312L17.5921 17.7031C17.4154 17.901 17.2061 18 16.9643 18C16.7225 18 16.5132 17.901 16.3365 17.7031C16.1598 17.5052 16.0714 17.2708 16.0714 17V13H12.9464C12.035 13 11.2188 13.0312 10.498 13.0938C9.77725 13.1562 9.0611 13.2682 8.34961 13.4297C7.63811 13.5911 7.01962 13.8125 6.49414 14.0938C5.96866 14.375 5.47805 14.737 5.02232 15.1797C4.56659 15.6224 4.19457 16.1484 3.90625 16.7578C3.61793 17.3672 3.39239 18.0885 3.22963 18.9219C3.06687 19.7552 2.98549 20.6979 2.98549 21.75C2.98549 22.3229 3.00874 22.9635 3.05525 23.6719C3.05525 23.7344 3.06687 23.8568 3.09012 24.0391C3.11337 24.2214 3.125 24.3594 3.125 24.4531C3.125 24.6094 3.08547 24.7396 3.00642 24.8438C2.92736 24.9479 2.81808 25 2.67857 25C2.52976 25 2.39955 24.9115 2.28795 24.7344C2.22284 24.6406 2.16239 24.526 2.10658 24.3906C2.05078 24.2552 1.988 24.099 1.91825 23.9219C1.84849 23.7448 1.79967 23.6198 1.77176 23.5469C0.590588 20.5781 0 18.2292 0 16.5C0 14.4271 0.246466 12.6927 0.739397 11.2969C2.24609 7.09896 6.3151 5 12.9464 5H16.0714V1C16.0714 0.729167 16.1598 0.494792 16.3365 0.296875C16.5132 0.0989583 16.7225 0 16.9643 0C17.2061 0 17.4154 0.0989583 17.5921 0.296875L24.7349 8.29688C24.9116 8.49479 25 8.72917 25 9Z" fill="#888888"/>
</svg>
