<svg width="48" height="48" viewBox="0 0 48 48" fill="none" xmlns="http://www.w3.org/2000/svg">
<path fill-rule="evenodd" clip-rule="evenodd" d="M23.3217 12.2017C23.5731 12.037 23.8778 11.9697 24.1769 12.0127C24.476 12.0557 24.7483 12.2059 24.9411 12.4345C25.5131 13.1124 27.2047 14.7504 29.1541 15.6587C30.9194 16.5776 32.3963 17.9513 33.4263 19.6323C34.4562 21.3132 35.0003 23.2379 35 25.1995C35.0002 26.9583 34.5628 28.6904 33.7259 30.2455C32.8891 31.8006 31.678 33.1314 30.1981 34.1224C28.7181 35.1134 27.014 35.7345 25.2339 35.9318C23.4538 36.1291 21.6516 35.8966 19.9838 35.2545C18.3161 34.6123 16.8333 33.58 15.6644 32.2473C14.4955 30.9145 13.6758 29.3216 13.2766 27.6071C12.8774 25.8926 12.9107 24.1083 13.3738 22.4093C13.8368 20.7103 14.7154 19.148 15.9333 17.8582C16.0703 17.7132 16.2417 17.6036 16.4323 17.5394C16.6228 17.4751 16.8266 17.458 17.0255 17.4897C17.2243 17.5214 17.4121 17.6009 17.5722 17.7211C17.7322 17.8413 17.8595 17.9985 17.9427 18.1786C18.0979 18.517 18.5183 18.9742 19.1551 19.4578L19.2566 19.5346C19.501 17.8426 20.029 16.4243 20.656 15.2892C21.4944 13.7676 22.526 12.7225 23.3217 12.2017ZM23.9034 21.8217C24.1604 21.6425 24.4779 21.5677 24.7897 21.6128C25.1014 21.658 25.3834 21.8196 25.5767 22.064C25.628 22.1288 25.7698 22.2872 25.9714 22.4648C26.1804 22.6538 26.4148 22.8137 26.6681 22.94C28.0126 23.6996 28.8889 25.1599 28.8889 26.799C28.8889 29.1557 27.047 31.1992 24.6111 31.1992C22.1752 31.1992 20.3333 29.1557 20.3333 26.799C20.3333 25.6675 20.7501 24.6247 21.448 23.8364C21.5956 23.67 21.7871 23.5467 22.0015 23.4803C22.2158 23.4138 22.4447 23.4066 22.6629 23.4596C22.7106 23.3492 22.7607 23.2436 22.812 23.1428C23.1212 22.5452 23.5233 22.0868 23.9034 21.8217Z" fill="white"/>
</svg>
