<svg width="40" height="36" viewBox="0 0 40 36" fill="none" xmlns="http://www.w3.org/2000/svg">
<g clip-path="url(#clip0_175_710)">
<path fill-rule="evenodd" clip-rule="evenodd" d="M16.3231 10.4549H13.0777C12.827 10.4549 12.5953 10.3234 12.4807 10.1117C12.4245 10.0085 12.3993 9.89172 12.4079 9.77497C12.4165 9.65822 12.4587 9.54628 12.5294 9.45217L19.4294 0.267845C19.5563 0.0993651 19.7582 4.76762e-06 19.9753 4.76762e-06H19.9768C20.0824 -0.000387139 20.1867 0.0233875 20.2815 0.0694526C20.3762 0.115518 20.4587 0.182613 20.5226 0.265445L27.4675 9.45169C27.5391 9.54541 27.5818 9.65737 27.5906 9.77427C27.5994 9.89118 27.574 10.0081 27.5172 10.1112C27.4026 10.321 27.1724 10.4549 26.9216 10.4549H23.6738V18.7051C23.6738 19.0579 23.3743 19.3416 23.0026 19.3416H16.9943C16.6241 19.3416 16.3231 19.0579 16.3231 18.7051V10.4549ZM28.6263 17.8176H37.5049C38.8834 17.8176 39.9995 18.8736 40 20.1787V33.6446C40 34.9473 38.8844 36.0048 37.5054 36.0048H2.49512C1.11707 36.0048 0 34.9473 0 33.6446V20.1787C0 18.8736 1.11707 17.8176 2.49512 17.8176H11.3732C12.4561 17.8176 13.4146 18.4771 13.7473 19.4524C14.6263 22.0324 17.1395 23.7643 20 23.7643C22.8595 23.7643 25.3737 22.0324 26.2532 19.4524C26.5849 18.4771 27.5444 17.8176 28.6263 17.8176Z" fill="#888888"/>
</g>
<defs>
<clipPath id="clip0_175_710">
<rect width="40" height="36" fill="white"/>
</clipPath>
</defs>
</svg>
